<?xml version="1.0" encoding="UTF-8" standalone="no"?>
<svg
   viewBox="0 0 200 200"
   version="1.1"
   id="svg4"
   sodipodi:docname="discord-mark-blue.svg"
   width="200"
   height="200"
   inkscape:version="1.2.2 (b0a84865, 2022-12-01)"
   inkscape:export-filename="discord-mark-blue.png"
   inkscape:export-xdpi="96"
   inkscape:export-ydpi="96"
   xmlns:inkscape="http://www.inkscape.org/namespaces/inkscape"
   xmlns:sodipodi="http://sodipodi.sourceforge.net/DTD/sodipodi-0.dtd"
   xmlns:xlink="http://www.w3.org/1999/xlink"
   xmlns="http://www.w3.org/2000/svg"
   xmlns:svg="http://www.w3.org/2000/svg">
  <defs
     id="defs8">
    <linearGradient
       inkscape:collect="always"
       id="linearGradient9072">
      <stop
         style="stop-color:#324467;stop-opacity:0.89999998;"
         offset="0"
         id="stop9068" />
      <stop
         style="stop-color:#ae5cd6;stop-opacity:0.89971346;"
         offset="1"
         id="stop9070" />
    </linearGradient>
    <linearGradient
       inkscape:collect="always"
       id="linearGradient6882">
      <stop
         style="stop-color:#000000;stop-opacity:1;"
         offset="0"
         id="stop6878" />
      <stop
         style="stop-color:#3b1784;stop-opacity:1;"
         offset="1"
         id="stop6880" />
    </linearGradient>
    <filter
       style="color-interpolation-filters:sRGB;"
       inkscape:label="Blur"
       id="filter2798"
       x="-0.083357287"
       y="-0.11108852"
       width="1.1667199"
       height="1.2227627">
      <feGaussianBlur
         stdDeviation="2 2"
         result="fbSourceGraphic"
         id="feGaussianBlur2796" />
      <feColorMatrix
         result="fbSourceGraphicAlpha"
         in="fbSourceGraphic"
         values="0 0 0 -1 0 0 0 0 -1 0 0 0 0 -1 0 0 0 0 1 0"
         id="feColorMatrix2800" />
      <feGaussianBlur
         id="feGaussianBlur2802"
         stdDeviation="2 2"
         result="blur"
         in="fbSourceGraphic" />
    </filter>
    <filter
       style="color-interpolation-filters:sRGB;"
       inkscape:label="Blur"
       id="filter4984"
       x="-0.043641165"
       y="-0.058409793"
       width="1.0872864"
       height="1.1172589">
      <feGaussianBlur
         stdDeviation="2 2"
         result="blur"
         id="feGaussianBlur4982" />
    </filter>
    <linearGradient
       inkscape:collect="always"
       xlink:href="#linearGradient6882"
       id="linearGradient6884"
       x1="24.5"
       y1="175.5"
       x2="175"
       y2="25"
       gradientUnits="userSpaceOnUse"
       gradientTransform="matrix(1.0666667,0,0,1.0666667,-14.166667,-14.166667)" />
    <linearGradient
       inkscape:collect="always"
       xlink:href="#linearGradient9072"
       id="linearGradient9074"
       x1="25.831803"
       y1="100.02822"
       x2="174.16888"
       y2="100.02822"
       gradientUnits="userSpaceOnUse" />
  </defs>
  <sodipodi:namedview
     id="namedview6"
     pagecolor="#ffffff"
     bordercolor="#000000"
     borderopacity="0.25"
     inkscape:showpageshadow="2"
     inkscape:pageopacity="0.0"
     inkscape:pagecheckerboard="0"
     inkscape:deskcolor="#d1d1d1"
     showgrid="false"
     inkscape:zoom="3.0618179"
     inkscape:cx="54.54276"
     inkscape:cy="101.41034"
     inkscape:window-width="1440"
     inkscape:window-height="791"
     inkscape:window-x="0"
     inkscape:window-y="25"
     inkscape:window-maximized="0"
     inkscape:current-layer="svg4" />
  <rect
     style="fill:url(#linearGradient6884);fill-opacity:1;fill-rule:nonzero;stroke:#a998ff;stroke-width:2;stroke-linecap:round;stroke-dasharray:none;stroke-opacity:1"
     id="rect6127"
     width="175"
     height="175"
     x="12.5"
     y="12.5"
     rx="25"
     ry="25" />
  <path
     fill="#5865f2"
     d="m 144.12978,59.89 a 105.15,105.15 0 0 0 -26.23,-8.07 72.06,72.06 0 0 0 -3.36,6.83 97.68,97.68 0 0 0 -29.110005,0 72.37,72.37 0 0 0 -3.36,-6.83 105.89,105.89 0 0 0 -26.25,8.09 c -16.6,24.56 -21.1,48.51 -18.85,72.12 v 0 a 105.73,105.73 0 0 0 32.17,16.15 77.7,77.7 0 0 0 6.89,-11.11 68.42,68.42 0 0 1 -10.85,-5.18 c 0.91,-0.66 1.8,-1.34 2.66,-2 a 75.57,75.57 0 0 0 64.320005,0 c 0.87,0.71 1.76,1.39 2.66,2 a 68.68,68.68 0 0 1 -10.87,5.19 77,77 0 0 0 6.89,11.1 105.25,105.25 0 0 0 32.19,-16.14 v 0 c 2.64,-27.38 -4.51,-51.11 -18.9,-72.15 z m -65.250005,57.62 c -6.27,0 -11.45,-5.69 -11.45,-12.69 0,-7 5,-12.74 11.43,-12.74 6.43,0 11.57,5.74 11.46,12.74 -0.11,7 -5.05,12.69 -11.44,12.69 z m 42.240005,0 c -6.28,0 -11.44,-5.69 -11.44,-12.69 0,-7 5,-12.74 11.44,-12.74 6.44,0 11.54,5.74 11.43,12.74 -0.11,7 -5.04,12.69 -11.43,12.69 z"
     id="path1703"
     style="stroke:#ba98ff;stroke-opacity:1;fill:none" />
  <path
     fill="#5865f2"
     d="m 144.12978,59.89 a 105.15,105.15 0 0 0 -26.23,-8.07 72.06,72.06 0 0 0 -3.36,6.83 97.68,97.68 0 0 0 -29.110005,0 72.37,72.37 0 0 0 -3.36,-6.83 105.89,105.89 0 0 0 -26.25,8.09 c -16.6,24.56 -21.1,48.51 -18.85,72.12 v 0 a 105.73,105.73 0 0 0 32.17,16.15 77.7,77.7 0 0 0 6.89,-11.11 68.42,68.42 0 0 1 -10.85,-5.18 c 0.91,-0.66 1.8,-1.34 2.66,-2 a 75.57,75.57 0 0 0 64.320005,0 c 0.87,0.71 1.76,1.39 2.66,2 a 68.68,68.68 0 0 1 -10.87,5.19 77,77 0 0 0 6.89,11.1 105.25,105.25 0 0 0 32.19,-16.14 v 0 c 2.64,-27.38 -4.51,-51.11 -18.9,-72.15 z m -65.250005,57.62 c -6.27,0 -11.45,-5.69 -11.45,-12.69 0,-7 5,-12.74 11.43,-12.74 6.43,0 11.57,5.74 11.46,12.74 -0.11,7 -5.05,12.69 -11.44,12.69 z m 42.240005,0 c -6.28,0 -11.44,-5.69 -11.44,-12.69 0,-7 5,-12.74 11.44,-12.74 6.44,0 11.54,5.74 11.43,12.74 -0.11,7 -5.04,12.69 -11.43,12.69 z"
     id="path1705"
     style="stroke:#7632ff;stroke-opacity:1;fill:url(#linearGradient9074);stroke-width:2;stroke-dasharray:none;filter:url(#filter2798);fill-opacity:1" />
</svg>
