<?xml version="1.0" encoding="UTF-8" standalone="no"?>
<svg
   viewBox="0 0 200 200"
   version="1.1"
   id="svg6244"
   sodipodi:docname="spotify-logo.svg"
   width="200"
   height="200"
   inkscape:version="1.2.2 (b0a84865, 2022-12-01)"
   inkscape:export-filename="../site/spotify-logo.png"
   inkscape:export-xdpi="96"
   inkscape:export-ydpi="96"
   xmlns:inkscape="http://www.inkscape.org/namespaces/inkscape"
   xmlns:sodipodi="http://sodipodi.sourceforge.net/DTD/sodipodi-0.dtd"
   xmlns:xlink="http://www.w3.org/1999/xlink"
   xmlns="http://www.w3.org/2000/svg"
   xmlns:svg="http://www.w3.org/2000/svg">
  <defs
     id="defs6248">
    <linearGradient
       inkscape:collect="always"
       id="linearGradient38508">
      <stop
         style="stop-color:#324467;stop-opacity:0.89803922;"
         offset="0"
         id="stop38504" />
      <stop
         style="stop-color:#ae5cd6;stop-opacity:0.89803922;"
         offset="1"
         id="stop38506" />
    </linearGradient>
    <linearGradient
       inkscape:collect="always"
       xlink:href="#linearGradient3717"
       id="linearGradient3719"
       x1="19"
       y1="181"
       x2="180"
       y2="20"
       gradientUnits="userSpaceOnUse"
       gradientTransform="translate(2.2495117e-6)" />
    <linearGradient
       inkscape:collect="always"
       id="linearGradient3717">
      <stop
         style="stop-color:#000000;stop-opacity:1;"
         offset="0"
         id="stop3713" />
      <stop
         style="stop-color:#3b1784;stop-opacity:1;"
         offset="1"
         id="stop3715" />
    </linearGradient>
    <linearGradient
       inkscape:collect="always"
       xlink:href="#linearGradient38508"
       id="linearGradient38510"
       x1="36.5"
       y1="100"
       x2="163.5"
       y2="100"
       gradientUnits="userSpaceOnUse" />
    <filter
       style="color-interpolation-filters:sRGB;"
       inkscape:label="Blur"
       id="filter43684"
       x="-0.0808"
       y="-0.0808"
       width="1.1616"
       height="1.1616">
      <feGaussianBlur
         stdDeviation="2 2"
         result="fbSourceGraphic"
         id="feGaussianBlur43682" />
      <feColorMatrix
         result="fbSourceGraphicAlpha"
         in="fbSourceGraphic"
         values="0 0 0 -1 0 0 0 0 -1 0 0 0 0 -1 0 0 0 0 1 0"
         id="feColorMatrix44049" />
      <feGaussianBlur
         id="feGaussianBlur44051"
         stdDeviation="2 2"
         result="blur"
         in="fbSourceGraphic" />
    </filter>
  </defs>
  <sodipodi:namedview
     id="namedview6246"
     pagecolor="#ffffff"
     bordercolor="#000000"
     borderopacity="0.25"
     inkscape:showpageshadow="2"
     inkscape:pageopacity="0.0"
     inkscape:pagecheckerboard="0"
     inkscape:deskcolor="#d1d1d1"
     showgrid="false"
     inkscape:zoom="2.8942581"
     inkscape:cx="92.942643"
     inkscape:cy="99.334609"
     inkscape:window-width="1440"
     inkscape:window-height="791"
     inkscape:window-x="39"
     inkscape:window-y="25"
     inkscape:window-maximized="0"
     inkscape:current-layer="svg6244" />
  <rect
     style="fill:url(#linearGradient3719);fill-opacity:1;stroke:#a998ff;stroke-width:2;stroke-linecap:round"
     id="rect1670"
     width="160"
     height="160"
     x="20"
     y="20"
     rx="25"
     ry="25" />
  <path
     id="path6240"
     style="stroke-width:1;fill-opacity:1;fill:url(#linearGradient38510);stroke:#7632ff;stroke-opacity:1;stroke-dasharray:none;filter:url(#filter43684)"
     d="M 100 37.5 C 65.499027 37.5 37.5 65.499027 37.5 100 C 37.5 134.50098 65.499027 162.5 100 162.5 C 134.50098 162.5 162.5 134.50098 162.5 100 C 162.5 65.499027 134.50098 37.5 100 37.5 z M 90.800781 70.111328 C 109.19794 70.111328 128.47872 73.942485 142.56641 82.158203 C 144.53213 83.292275 145.81641 84.854527 145.81641 87.853516 C 145.81641 91.280931 143.0453 93.724609 139.9707 93.724609 C 138.66021 93.724609 137.85282 93.397429 136.71875 92.742188 C 118.77522 82.031512 86.693844 79.461447 65.927734 85.257812 C 65.020477 85.509828 63.885458 85.912109 62.675781 85.912109 C 59.349172 85.912109 56.804687 83.316654 56.804688 79.964844 C 56.804688 76.537428 58.92131 74.596648 61.189453 73.941406 C 70.060412 71.345643 79.989301 70.111328 90.800781 70.111328 z M 89.591797 91.582031 C 105.94763 91.582031 121.74963 95.639557 134.19922 103.04883 C 136.24055 104.2585 137.04688 105.82113 137.04688 108.01367 C 137.02168 110.73545 134.90517 112.92773 132.1582 112.92773 C 130.84771 112.92773 129.9639 112.34797 129.05664 111.86914 C 113.30565 102.54455 89.817898 98.790576 68.925781 104.46094 C 67.716105 104.78856 67.061806 105.11523 65.927734 105.11523 C 63.231165 105.11523 61.039062 102.92313 61.039062 100.22656 C 61.039062 97.529987 62.349548 95.740612 64.945312 95.009766 C 71.951353 93.044042 79.107936 91.582031 89.591797 91.582031 z M 90.259766 112.06641 C 103.06015 112.01669 115.51746 114.6962 126.76367 121.42188 C 128.30097 122.40473 129.20898 123.28673 129.20898 125.58008 C 129.20898 127.87342 127.42023 129.46094 125.37891 129.46094 C 124.32045 129.46094 123.6645 129.13236 122.68164 128.55273 C 106.95585 119.07693 88.659382 118.67428 70.589844 122.37891 C 69.606982 122.63093 68.32069 123.03516 67.589844 123.03516 C 65.145289 123.03516 63.609375 121.09406 63.609375 119.05273 C 63.609375 116.45697 65.14699 115.22158 67.037109 114.81836 C 74.777147 113.1078 82.579533 112.09624 90.259766 112.06641 z " />
  <path
     id="path42228"
     style="stroke-width:1;fill-opacity:0.89999998;fill:none;stroke:#ba98ff;stroke-opacity:1;stroke-dasharray:none;opacity:0.9"
     d="M 100 37.5 C 65.499027 37.5 37.5 65.499027 37.5 100 C 37.5 134.50098 65.499027 162.5 100 162.5 C 134.50098 162.5 162.5 134.50098 162.5 100 C 162.5 65.499027 134.50098 37.5 100 37.5 z M 90.800781 70.111328 C 109.19794 70.111328 128.47872 73.942485 142.56641 82.158203 C 144.53213 83.292275 145.81641 84.854527 145.81641 87.853516 C 145.81641 91.280931 143.0453 93.724609 139.9707 93.724609 C 138.66021 93.724609 137.85282 93.397429 136.71875 92.742188 C 118.77522 82.031512 86.693844 79.461447 65.927734 85.257812 C 65.020477 85.509828 63.885458 85.912109 62.675781 85.912109 C 59.349172 85.912109 56.804687 83.316654 56.804688 79.964844 C 56.804688 76.537428 58.92131 74.596648 61.189453 73.941406 C 70.060412 71.345643 79.989301 70.111328 90.800781 70.111328 z M 89.591797 91.582031 C 105.94763 91.582031 121.74963 95.639557 134.19922 103.04883 C 136.24055 104.2585 137.04688 105.82113 137.04688 108.01367 C 137.02168 110.73545 134.90517 112.92773 132.1582 112.92773 C 130.84771 112.92773 129.9639 112.34797 129.05664 111.86914 C 113.30565 102.54455 89.817898 98.790576 68.925781 104.46094 C 67.716105 104.78856 67.061806 105.11523 65.927734 105.11523 C 63.231165 105.11523 61.039062 102.92313 61.039062 100.22656 C 61.039062 97.529987 62.349548 95.740612 64.945312 95.009766 C 71.951353 93.044042 79.107936 91.582031 89.591797 91.582031 z M 90.259766 112.06641 C 103.06015 112.01669 115.51746 114.6962 126.76367 121.42188 C 128.30097 122.40473 129.20898 123.28673 129.20898 125.58008 C 129.20898 127.87342 127.42023 129.46094 125.37891 129.46094 C 124.32045 129.46094 123.6645 129.13236 122.68164 128.55273 C 106.95585 119.07693 88.659382 118.67428 70.589844 122.37891 C 69.606982 122.63093 68.32069 123.03516 67.589844 123.03516 C 65.145289 123.03516 63.609375 121.09406 63.609375 119.05273 C 63.609375 116.45697 65.14699 115.22158 67.037109 114.81836 C 74.777147 113.1078 82.579533 112.09624 90.259766 112.06641 z " />
</svg>
