<?xml version="1.0" encoding="UTF-8" standalone="no"?>
<svg
   width="200"
   height="200"
   version="1.1"
   id="svg4"
   sodipodi:docname="github-mark.svg"
   inkscape:version="1.2.2 (b0a84865, 2022-12-01)"
   inkscape:export-filename="../../site/github-mark.png"
   inkscape:export-xdpi="96"
   inkscape:export-ydpi="96"
   xmlns:inkscape="http://www.inkscape.org/namespaces/inkscape"
   xmlns:sodipodi="http://sodipodi.sourceforge.net/DTD/sodipodi-0.dtd"
   xmlns:xlink="http://www.w3.org/1999/xlink"
   xmlns="http://www.w3.org/2000/svg"
   xmlns:svg="http://www.w3.org/2000/svg">
  <defs
     id="defs8">
    <linearGradient
       inkscape:collect="always"
       id="linearGradient1761">
      <stop
         style="stop-color:#324467;stop-opacity:0.89803922;"
         offset="0"
         id="stop1757" />
      <stop
         style="stop-color:#ae5cd6;stop-opacity:0.89803922;"
         offset="1"
         id="stop1759" />
    </linearGradient>
    <linearGradient
       inkscape:collect="always"
       id="linearGradient3717">
      <stop
         style="stop-color:#000000;stop-opacity:1;"
         offset="0"
         id="stop3713" />
      <stop
         style="stop-color:#3b1784;stop-opacity:1;"
         offset="1"
         id="stop3715" />
    </linearGradient>
    <linearGradient
       inkscape:collect="always"
       xlink:href="#linearGradient3717"
       id="linearGradient3719"
       x1="19"
       y1="181"
       x2="180"
       y2="20"
       gradientUnits="userSpaceOnUse" />
    <linearGradient
       inkscape:collect="always"
       xlink:href="#linearGradient1761"
       id="linearGradient1763"
       x1="34.999999"
       y1="99.999999"
       x2="165"
       y2="99.999999"
       gradientUnits="userSpaceOnUse" />
    <filter
       style="color-interpolation-filters:sRGB;"
       inkscape:label="Blur"
       id="filter23551"
       x="-0.077692307"
       y="-0.079008875"
       width="1.1553846"
       height="1.1579915">
      <feGaussianBlur
         stdDeviation="2 2"
         result="fbSourceGraphic"
         id="feGaussianBlur23549" />
      <feColorMatrix
         result="fbSourceGraphicAlpha"
         in="fbSourceGraphic"
         values="0 0 0 -1 0 0 0 0 -1 0 0 0 0 -1 0 0 0 0 1 0"
         id="feColorMatrix23553" />
      <feGaussianBlur
         id="feGaussianBlur23555"
         stdDeviation="2 2"
         result="blur"
         in="fbSourceGraphic" />
    </filter>
    <filter
       style="color-interpolation-filters:sRGB;"
       inkscape:label="Blur"
       id="filter27195"
       x="-0.077692307"
       y="-0.079008873"
       width="1.1553846"
       height="1.1579915">
      <feGaussianBlur
         stdDeviation="2 2"
         result="fbSourceGraphic"
         id="feGaussianBlur27193" />
      <feColorMatrix
         result="fbSourceGraphicAlpha"
         in="fbSourceGraphic"
         values="0 0 0 -1 0 0 0 0 -1 0 0 0 0 -1 0 0 0 0 1 0"
         id="feColorMatrix27197" />
      <feGaussianBlur
         id="feGaussianBlur27199"
         stdDeviation="2 2"
         result="blur"
         in="fbSourceGraphic" />
    </filter>
  </defs>
  <sodipodi:namedview
     id="namedview6"
     pagecolor="#ffffff"
     bordercolor="#000000"
     borderopacity="0.25"
     inkscape:showpageshadow="2"
     inkscape:pageopacity="0.0"
     inkscape:pagecheckerboard="0"
     inkscape:deskcolor="#d1d1d1"
     showgrid="false"
     inkscape:zoom="3.4704003"
     inkscape:cx="93.072838"
     inkscape:cy="120.59128"
     inkscape:window-width="1440"
     inkscape:window-height="791"
     inkscape:window-x="23"
     inkscape:window-y="25"
     inkscape:window-maximized="0"
     inkscape:current-layer="svg4" />
  <rect
     style="fill:url(#linearGradient3719);fill-opacity:1;stroke:#a998ff;stroke-width:2;stroke-linecap:round"
     id="rect1670"
     width="160"
     height="160"
     x="20"
     y="20"
     rx="25"
     ry="25" />
  <path
     fill-rule="evenodd"
     clip-rule="evenodd"
     d="m 100.05379,36.083127 c -35.973067,0 -65.053791,29.295111 -65.053791,65.537153 0,28.9702 18.633022,53.49287 44.481962,62.17222 3.231783,0.65248 4.415572,-1.41017 4.415572,-3.14524 0,-1.51934 -0.106528,-6.72722 -0.106528,-12.15347 -18.096388,3.9069 -21.864805,-7.81248 -21.864805,-7.81248 -2.908205,-7.59542 -7.217249,-9.54754 -7.217249,-9.54754 -5.92294,-4.01476 0.431436,-4.01476 0.431436,-4.01476 6.570095,0.4341 10.017596,6.72722 10.017596,6.72722 5.815079,9.98164 15.18552,7.16133 18.955269,5.42493 0.537966,-4.23181 2.262379,-7.16133 4.093329,-8.78854 C 73.77341,128.96327 58.58789,123.3213 58.58789,98.147486 c 0,-7.16133 2.583295,-13.02035 6.676621,-17.577071 -0.645824,-1.627209 -2.908205,-8.355764 0.647156,-17.361347 0,0 5.492833,-1.736401 17.878007,6.727223 a 62.545061,62.545061 0 0 1 16.264116,-2.170502 c 5.49282,0 11.09219,0.760342 16.26278,2.170502 12.3865,-8.463624 17.87934,-6.727223 17.87934,-6.727223 3.55536,9.005583 1.29164,15.734138 0.64582,17.361347 4.20118,4.556721 6.67795,10.415741 6.67795,17.577071 0,25.173814 -15.18552,30.706594 -29.72654,32.335134 2.37023,2.06131 4.41556,5.96688 4.41556,12.15215 0,8.78853 -0.10652,15.842 -0.10652,18.01117 0,1.73639 1.18512,3.79904 4.41557,3.14789 25.84894,-8.68202 44.48196,-33.20335 44.48196,-62.17355 0.10653,-36.242042 -29.08072,-65.537153 -64.94592,-65.537153 z"
     fill="#24292f"
     id="path2"
     style="stroke-width:1;fill:url(#linearGradient1763);fill-opacity:1;stroke:#7632ff;stroke-opacity:1;filter:url(#filter27195)" />
  <path
     fill-rule="evenodd"
     clip-rule="evenodd"
     d="m 100.05379,36.083127 c -35.973067,0 -65.053791,29.295111 -65.053791,65.537153 0,28.9702 18.633022,53.49287 44.481962,62.17222 3.231783,0.65248 4.415572,-1.41017 4.415572,-3.14524 0,-1.51934 -0.106528,-6.72722 -0.106528,-12.15347 -18.096388,3.9069 -21.864805,-7.81248 -21.864805,-7.81248 -2.908205,-7.59542 -7.217249,-9.54754 -7.217249,-9.54754 -5.92294,-4.01476 0.431436,-4.01476 0.431436,-4.01476 6.570095,0.4341 10.017596,6.72722 10.017596,6.72722 5.815079,9.98164 15.18552,7.16133 18.955269,5.42493 0.537966,-4.23181 2.262379,-7.16133 4.093329,-8.78854 C 73.77341,128.96327 58.58789,123.3213 58.58789,98.147486 c 0,-7.16133 2.583295,-13.02035 6.676621,-17.577071 -0.645824,-1.627209 -2.908205,-8.355764 0.647156,-17.361347 0,0 5.492833,-1.736401 17.878007,6.727223 a 62.545061,62.545061 0 0 1 16.264116,-2.170502 c 5.49282,0 11.09219,0.760342 16.26278,2.170502 12.3865,-8.463624 17.87934,-6.727223 17.87934,-6.727223 3.55536,9.005583 1.29164,15.734138 0.64582,17.361347 4.20118,4.556721 6.67795,10.415741 6.67795,17.577071 0,25.173814 -15.18552,30.706594 -29.72654,32.335134 2.37023,2.06131 4.41556,5.96688 4.41556,12.15215 0,8.78853 -0.10652,15.842 -0.10652,18.01117 0,1.73639 1.18512,3.79904 4.41557,3.14789 25.84894,-8.68202 44.48196,-33.20335 44.48196,-62.17355 0.10653,-36.242042 -29.08072,-65.537153 -64.94592,-65.537153 z"
     fill="#24292f"
     id="path25374"
     style="stroke-width:1;fill:none;fill-opacity:1;stroke:#ba98ff;stroke-opacity:1" />
</svg>
